{"title":"Ben Hur 1959","uid":11566123,"size":3128763068,"categoryP":"video","categoryS":"hd___movies","magnet":"?xt=urn:btih:64a2012d17775df3cde03542b0585e540b68b75a&amp;dn=Ben+Hur+1959&amp;tr=udp%3A%2F%2Ftracker.openbittorrent.com%3A80&amp;tr=udp%3A%2F%2Fopen.demonii.com%3A1337&amp;tr=udp%3A%2F%2Ftracker.coppersurfer.tk%3A6969&amp;tr=udp%3A%2F%2Fexodus.desync.com%3A6969","seeders":0,"leechers":0,"uploader":"tcerepna","files":1,"time":1416953033,"description":"Complete name                            : Ben-Hur.1959.1080p.BluRay.DTS.x264.mp4\nFormat                                   : MPEG-4\nFormat profile                           : Base Media\nCodec ID                                 : isom\nFile size                                : 2.91 GiB\nDuration                                 : 3h 42mn\nOverall bit rate mode                    : Variable\nOverall bit rate                         : 1 875 Kbps\nMovie name                               : Ben-Hur (1959)\nWriting application                      : Lavf52.94.0\n\nVideo\nID                                       : 1\nFormat                                   : AVC\nFormat/Info                              : Advanced Video Codec\nFormat profile                           : &lt;a class=&quot;__cf_email__&quot; href=&quot;/cdn-cgi/l/email-protection&quot; data-cfemail=&quot;e6ab878f88a6aad2c8d6&quot;&gt;[email&amp;#160;protected]&lt;/a&gt;&lt;script cf-hash='f9e31' type=&quot;text/javascript&quot;&gt;\n/* &lt;![CDATA[ */!function(){try{var t=&quot;currentScript&quot;in document?document.currentScript:function(){for(var t=document.getElementsByTagName(&quot;script&quot;),e=t.length;e--;)if(t[e].getAttribute(&quot;cf-hash&quot;))return t[e]}();if(t&amp;&amp;t.previousSibling){var e,r,n,i,c=t.previousSibling,a=c.getAttribute(&quot;data-cfemail&quot;);if(a){for(e=&quot;&quot;,r=parseInt(a.substr(0,2),16),n=2;a.length-n;n+=2)i=parseInt(a.substr(n,2),16)^r,e+=String.fromCharCode(i);e=document.createTextNode(e),c.parentNode.replaceChild(e,c)}}}catch(u){}}();/* ]]&gt; */&lt;/script&gt;\nFormat settings, CABAC                   : Yes\nFormat settings, ReFrames                : 2 frames\nCodec ID                                 : avc1\nCodec ID/Info                            : Advanced Video Coding\nDuration                                 : 3h 42mn\nDuration_FirstFrame                      : -42ms\nBit rate                                 : 1 491 Kbps\nWidth                                    : 1 920 pixels\nHeight                                   : 696 pixels\nDisplay aspect ratio                     : 2.759\nFrame rate mode                          : Variable\nFrame rate                               : 23.976 fps\nMinimum frame rate                       : 11.988 fps\nMaximum frame rate                       : 23.976 fps\nColor space                              : YUV\nChroma subsampling                       : 4:2:0\nBit depth                                : 8 bits\nScan type                                : Progressive\nBits/(Pixel*Frame)                       : 0.047\nStream size                              : 2.31 GiB (79%)\nWriting library                          : x264 core 112 r1834 a51816a\n \n\nAudio\nID                                       : 2\nFormat                                   : AAC\nFormat/Info                              : Advanced Audio Codec\nFormat profile                           : LC\nCodec ID                                 : 40\nDuration                                 : 3h 42mn\nBit rate mode                            : Variable\nBit rate                                 : 384 Kbps\nChannel(s)                               : 2 channels\nOriginal Channel count                   : 6 channels\nChannel positions                        : Front: L C R, Side: L R, LFE\nSampling rate                            : 48.0 KHz\nCompression mode                         : Lossy\nDelay relative to video                  : 42ms\nStream size                              : 611 MiB (20%)","torrent":{"xt":"urn:btih:64a2012d17775df3cde03542b0585e540b68b75a","amp;dn":"Ben+Hur+1959","amp;tr":["udp%3A%2F%2Ftracker.openbittorrent.com%3A80","udp%3A%2F%2Fopen.demonii.com%3A1337","udp%3A%2F%2Ftracker.coppersurfer.tk%3A6969","udp%3A%2F%2Fexodus.desync.com%3A6969"],"infoHash":"64a2012d17775df3cde03542b0585e540b68b75a","infoHashBuffer":{"type":"Buffer","data":[100,162,1,45,23,119,93,243,205,224,53,66,176,88,94,84,11,104,183,90]},"announce":[],"urlList":[]}}